<mxfile host="65bd71144e">
    <diagram id="prtHgNgQTEPvFCAcTncT" name="Page-1">
        <mxGraphModel dx="545" dy="1599" grid="1" gridSize="10" guides="1" tooltips="1" connect="1" arrows="1" fold="1" page="1" pageScale="1" pageWidth="827" pageHeight="1169" math="0" shadow="0">
            <root>
                <mxCell id="0"/>
                <mxCell id="1" parent="0"/>
                <mxCell id="h6siY7k5fmPEc59O4CG5-3" value="" style="rounded=0;whiteSpace=wrap;html=1;fillColor=#000000;" parent="1" vertex="1">
                    <mxGeometry x="40" y="-40" width="680" height="560" as="geometry"/>
                </mxCell>
                <mxCell id="h6siY7k5fmPEc59O4CG5-4" value="&lt;font style=&quot;font-size: 30px&quot;&gt;Travel Fantasy&lt;/font&gt;" style="rounded=0;whiteSpace=wrap;html=1;strokeColor=#d79b00;strokeWidth=6;fillColor=#FFE74D;" parent="1" vertex="1">
                    <mxGeometry x="70" y="-30" width="620" height="60" as="geometry"/>
                </mxCell>
                <mxCell id="h6siY7k5fmPEc59O4CG5-6" value="&lt;span style=&quot;background-color: rgb(128 , 59 , 59)&quot;&gt;&lt;font color=&quot;#ffffff&quot;&gt;&lt;br&gt;&lt;font style=&quot;font-family: &amp;#34;helvetica&amp;#34; ; font-style: normal ; font-weight: 400 ; letter-spacing: normal ; text-align: center ; text-indent: 0px ; text-transform: none ; word-spacing: 0px ; font-size: 20px&quot;&gt;&lt;br&gt;The Normandy&lt;/font&gt;&lt;br style=&quot;font-family: &amp;#34;helvetica&amp;#34; ; font-size: 14px ; font-style: normal ; font-weight: 400 ; letter-spacing: normal ; text-align: center ; text-indent: 0px ; text-transform: none ; word-spacing: 0px&quot;&gt;&lt;/font&gt;&lt;/span&gt;&lt;div style=&quot;font-family: &amp;#34;helvetica&amp;#34; ; font-size: 14px ; font-style: normal ; font-weight: 400 ; letter-spacing: normal ; text-align: center ; text-indent: 0px ; text-transform: none ; word-spacing: 0px&quot;&gt;&lt;span style=&quot;background-color: rgb(128 , 59 , 59)&quot;&gt;&lt;font color=&quot;#ffffff&quot;&gt;blah blah blah blah blah&lt;/font&gt;&lt;/span&gt;&lt;/div&gt;&lt;div style=&quot;font-family: &amp;#34;helvetica&amp;#34; ; font-size: 14px ; font-style: normal ; font-weight: 400 ; letter-spacing: normal ; text-align: center ; text-indent: 0px ; text-transform: none ; word-spacing: 0px&quot;&gt;&lt;span style=&quot;background-color: rgb(128 , 59 , 59)&quot;&gt;&lt;font color=&quot;#ffffff&quot;&gt;blah blah blah blah blah&lt;/font&gt;&lt;/span&gt;&lt;/div&gt;&lt;div style=&quot;font-family: &amp;#34;helvetica&amp;#34; ; font-size: 14px ; font-style: normal ; font-weight: 400 ; letter-spacing: normal ; text-align: center ; text-indent: 0px ; text-transform: none ; word-spacing: 0px&quot;&gt;&lt;span style=&quot;background-color: rgb(128 , 59 , 59)&quot;&gt;&lt;font color=&quot;#ffffff&quot;&gt;blah blah blah blah blah&lt;/font&gt;&lt;/span&gt;&lt;/div&gt;&lt;div style=&quot;font-family: &amp;#34;helvetica&amp;#34; ; font-size: 14px ; font-style: normal ; font-weight: 400 ; letter-spacing: normal ; text-align: center ; text-indent: 0px ; text-transform: none ; word-spacing: 0px&quot;&gt;&lt;span style=&quot;background-color: rgb(128 , 59 , 59)&quot;&gt;&lt;font color=&quot;#ffffff&quot;&gt;blah blah blah blah blah&lt;/font&gt;&lt;/span&gt;&lt;/div&gt;&lt;div style=&quot;font-family: &amp;#34;helvetica&amp;#34; ; font-size: 14px ; font-style: normal ; font-weight: 400 ; letter-spacing: normal ; text-align: center ; text-indent: 0px ; text-transform: none ; word-spacing: 0px&quot;&gt;&lt;span style=&quot;background-color: rgb(128 , 59 , 59)&quot;&gt;&lt;font color=&quot;#ffffff&quot;&gt;blah blah blah blah blah&lt;/font&gt;&lt;/span&gt;&lt;/div&gt;&lt;div style=&quot;font-family: &amp;#34;helvetica&amp;#34; ; font-size: 14px ; font-style: normal ; font-weight: 400 ; letter-spacing: normal ; text-align: center ; text-indent: 0px ; text-transform: none ; word-spacing: 0px&quot;&gt;&lt;span style=&quot;background-color: rgb(128 , 59 , 59)&quot;&gt;&lt;font color=&quot;#ffffff&quot;&gt;Click below to see if you're going to go to the Normandy!&lt;/font&gt;&lt;/span&gt;&lt;/div&gt;" style="rounded=0;whiteSpace=wrap;html=1;fillColor=#803B3B;" parent="1" vertex="1">
                    <mxGeometry x="280" y="140" width="190" height="300" as="geometry"/>
                </mxCell>
                <mxCell id="h6siY7k5fmPEc59O4CG5-7" value="&lt;font style=&quot;font-size: 14px&quot;&gt;&lt;font style=&quot;font-size: 20px&quot;&gt;&lt;br&gt;Gold Saucer&lt;/font&gt;&lt;br&gt;&lt;div&gt;&lt;span&gt;blah blah blah blah blah&lt;/span&gt;&lt;/div&gt;&lt;div&gt;&lt;span&gt;blah blah blah blah blah&lt;/span&gt;&lt;/div&gt;&lt;div&gt;&lt;span&gt;blah blah blah blah blah&lt;/span&gt;&lt;/div&gt;&lt;div&gt;&lt;span&gt;blah blah blah blah blah&lt;/span&gt;&lt;/div&gt;&lt;div&gt;&lt;span&gt;Click below to see if you're going to go to the Gold Saucer!&lt;/span&gt;&lt;/div&gt;&lt;/font&gt;" style="rounded=0;whiteSpace=wrap;html=1;fillColor=#803B3B;" parent="1" vertex="1">
                    <mxGeometry x="500" y="140" width="190" height="300" as="geometry"/>
                </mxCell>
                <mxCell id="h6siY7k5fmPEc59O4CG5-8" value="&lt;span style=&quot;background-color: rgb(128 , 59 , 59)&quot;&gt;&lt;br&gt;&lt;font style=&quot;font-family: &amp;#34;helvetica&amp;#34; ; font-style: normal ; font-weight: 400 ; letter-spacing: normal ; text-align: center ; text-indent: 0px ; text-transform: none ; word-spacing: 0px ; font-size: 20px&quot;&gt;&lt;br&gt;&lt;font color=&quot;#ffffff&quot;&gt;Sword Coast&lt;/font&gt;&lt;/font&gt;&lt;font color=&quot;#ffffff&quot;&gt;&lt;br style=&quot;font-family: &amp;#34;helvetica&amp;#34; ; font-size: 14px ; font-style: normal ; font-weight: 400 ; letter-spacing: normal ; text-align: center ; text-indent: 0px ; text-transform: none ; word-spacing: 0px&quot;&gt;&lt;/font&gt;&lt;/span&gt;&lt;div style=&quot;font-family: &amp;#34;helvetica&amp;#34; ; font-size: 14px ; font-style: normal ; font-weight: 400 ; letter-spacing: normal ; text-align: center ; text-indent: 0px ; text-transform: none ; word-spacing: 0px&quot;&gt;&lt;span style=&quot;background-color: rgb(128 , 59 , 59)&quot;&gt;&lt;font color=&quot;#ffffff&quot;&gt;blah blah blah blah blah&lt;/font&gt;&lt;/span&gt;&lt;/div&gt;&lt;div style=&quot;font-family: &amp;#34;helvetica&amp;#34; ; font-size: 14px ; font-style: normal ; font-weight: 400 ; letter-spacing: normal ; text-align: center ; text-indent: 0px ; text-transform: none ; word-spacing: 0px&quot;&gt;&lt;span style=&quot;background-color: rgb(128 , 59 , 59)&quot;&gt;&lt;font color=&quot;#ffffff&quot;&gt;blah blah blah blah blah&lt;/font&gt;&lt;/span&gt;&lt;/div&gt;&lt;div style=&quot;font-family: &amp;#34;helvetica&amp;#34; ; font-size: 14px ; font-style: normal ; font-weight: 400 ; letter-spacing: normal ; text-align: center ; text-indent: 0px ; text-transform: none ; word-spacing: 0px&quot;&gt;&lt;span style=&quot;background-color: rgb(128 , 59 , 59)&quot;&gt;&lt;font color=&quot;#ffffff&quot;&gt;blah blah blah blah blah&lt;/font&gt;&lt;/span&gt;&lt;/div&gt;&lt;div style=&quot;font-family: &amp;#34;helvetica&amp;#34; ; font-size: 14px ; font-style: normal ; font-weight: 400 ; letter-spacing: normal ; text-align: center ; text-indent: 0px ; text-transform: none ; word-spacing: 0px&quot;&gt;&lt;span style=&quot;background-color: rgb(128 , 59 , 59)&quot;&gt;&lt;font color=&quot;#ffffff&quot;&gt;blah blah blah blah blah&lt;/font&gt;&lt;/span&gt;&lt;/div&gt;&lt;div style=&quot;font-family: &amp;#34;helvetica&amp;#34; ; font-size: 14px ; font-style: normal ; font-weight: 400 ; letter-spacing: normal ; text-align: center ; text-indent: 0px ; text-transform: none ; word-spacing: 0px&quot;&gt;&lt;span style=&quot;background-color: rgb(128 , 59 , 59)&quot;&gt;&lt;font color=&quot;#ffffff&quot;&gt;blah blah blah blah blah&lt;/font&gt;&lt;/span&gt;&lt;/div&gt;&lt;div style=&quot;font-family: &amp;#34;helvetica&amp;#34; ; font-size: 14px ; font-style: normal ; font-weight: 400 ; letter-spacing: normal ; text-align: center ; text-indent: 0px ; text-transform: none ; word-spacing: 0px&quot;&gt;&lt;span style=&quot;background-color: rgb(128 , 59 , 59)&quot;&gt;&lt;font color=&quot;#ffffff&quot;&gt;Click below to see if you're going to go to Runeterra!&lt;/font&gt;&lt;/span&gt;&lt;/div&gt;" style="rounded=0;whiteSpace=wrap;html=1;fillColor=#803B3B;" parent="1" vertex="1">
                    <mxGeometry x="70" y="140" width="190" height="300" as="geometry"/>
                </mxCell>
                <mxCell id="h6siY7k5fmPEc59O4CG5-10" value="IMG" style="rounded=0;whiteSpace=wrap;html=1;" parent="1" vertex="1">
                    <mxGeometry x="80" y="150" width="170" height="80" as="geometry"/>
                </mxCell>
                <mxCell id="h6siY7k5fmPEc59O4CG5-11" value="IMG" style="rounded=0;whiteSpace=wrap;html=1;" parent="1" vertex="1">
                    <mxGeometry x="290" y="150" width="170" height="80" as="geometry"/>
                </mxCell>
                <mxCell id="h6siY7k5fmPEc59O4CG5-12" value="IMG" style="rounded=0;whiteSpace=wrap;html=1;" parent="1" vertex="1">
                    <mxGeometry x="510" y="150" width="170" height="80" as="geometry"/>
                </mxCell>
                <mxCell id="h6siY7k5fmPEc59O4CG5-13" style="edgeStyle=orthogonalEdgeStyle;rounded=0;orthogonalLoop=1;jettySize=auto;html=1;exitX=0.5;exitY=1;exitDx=0;exitDy=0;" parent="1" source="h6siY7k5fmPEc59O4CG5-3" target="h6siY7k5fmPEc59O4CG5-3" edge="1">
                    <mxGeometry relative="1" as="geometry"/>
                </mxCell>
                <mxCell id="h6siY7k5fmPEc59O4CG5-14" value="&lt;font color=&quot;#ffb570&quot;&gt;Here are Travel Fantasy, we take care of all your travel needs!&amp;nbsp; We book the location, we book your fun adventures, and even give you a reservation at an eatery of our choice!&amp;nbsp; Don't worry, we know all the best place to try!&lt;br&gt;&lt;br&gt;View your options below, but remember, WE know what's best, so we'll plan the whole trip for you!&amp;nbsp; I hope you've been through interdimensional wormholes before because if not....well.....you're in for a doozy.&lt;/font&gt;" style="text;html=1;strokeColor=none;fillColor=none;align=center;verticalAlign=middle;whiteSpace=wrap;rounded=0;" parent="1" vertex="1">
                    <mxGeometry x="70" y="50" width="620" height="80" as="geometry"/>
                </mxCell>
                <mxCell id="h6siY7k5fmPEc59O4CG5-15" value="&lt;font color=&quot;#000000&quot;&gt;Let's see where you're going!&lt;/font&gt;" style="rounded=1;whiteSpace=wrap;html=1;strokeWidth=5;fillColor=#FFFF69;" parent="1" vertex="1">
                    <mxGeometry x="110" y="390" width="110" height="40" as="geometry"/>
                </mxCell>
                <mxCell id="h6siY7k5fmPEc59O4CG5-16" value="&lt;font color=&quot;#000000&quot;&gt;Let's see where you're going!&lt;/font&gt;" style="rounded=1;whiteSpace=wrap;html=1;strokeWidth=5;fillColor=#FFFF69;" parent="1" vertex="1">
                    <mxGeometry x="320" y="390" width="110" height="40" as="geometry"/>
                </mxCell>
                <mxCell id="h6siY7k5fmPEc59O4CG5-17" value="&lt;span style=&quot;background-color: rgb(3 , 3 , 3)&quot;&gt;Let's see where you're going!&lt;/span&gt;" style="rounded=1;whiteSpace=wrap;html=1;strokeWidth=5;fillColor=#FFFF69;" parent="1" vertex="1">
                    <mxGeometry x="540" y="390" width="110" height="40" as="geometry"/>
                </mxCell>
                <mxCell id="h6siY7k5fmPEc59O4CG5-19" value="&lt;font color=&quot;#f7f7f7&quot;&gt;Image Sources&lt;br&gt;Because even though this is a mostly private project, credit where credit is due&lt;/font&gt;" style="text;html=1;strokeColor=none;fillColor=none;align=center;verticalAlign=middle;whiteSpace=wrap;rounded=0;" parent="1" vertex="1">
                    <mxGeometry x="70" y="450" width="620" height="60" as="geometry"/>
                </mxCell>
            </root>
        </mxGraphModel>
    </diagram>
</mxfile>